<svg width="119" height="119" viewBox="0 0 119 119" fill="none" xmlns="http://www.w3.org/2000/svg">
<path d="M29.0063 84.7875C33.2208 81.5646 37.9313 79.0234 43.1375 77.1641C48.3438 75.3047 53.7979 74.375 59.5 74.375C65.2021 74.375 70.6563 75.3047 75.8625 77.1641C81.0688 79.0234 85.7792 81.5646 89.9938 84.7875C92.8861 81.3993 95.138 77.5566 96.7495 73.2594C98.3609 68.9622 99.1667 64.3757 99.1667 59.5C99.1667 48.509 95.3033 39.1502 87.5766 31.4234C79.8498 23.6967 70.491 19.8333 59.5 19.8333C48.509 19.8333 39.1502 23.6967 31.4234 31.4234C23.6967 39.1502 19.8333 48.509 19.8333 59.5C19.8333 64.3757 20.6391 68.9622 22.2505 73.2594C23.862 77.5566 26.1139 81.3993 29.0063 84.7875ZM59.5 64.4583C54.6243 64.4583 50.513 62.7849 47.1662 59.438C43.8193 56.0912 42.1458 51.9799 42.1458 47.1042C42.1458 42.2285 43.8193 38.1172 47.1662 34.7703C50.513 31.4234 54.6243 29.75 59.5 29.75C64.3757 29.75 68.487 31.4234 71.8339 34.7703C75.1807 38.1172 76.8542 42.2285 76.8542 47.1042C76.8542 51.9799 75.1807 56.0912 71.8339 59.438C68.487 62.7849 64.3757 64.4583 59.5 64.4583ZM59.5 109.083C52.641 109.083 46.1951 107.782 40.1625 105.179C34.1299 102.576 28.8823 99.0427 24.4198 94.5802C19.9573 90.1177 16.4245 84.8701 13.8214 78.8375C11.2182 72.8049 9.91667 66.359 9.91667 59.5C9.91667 52.641 11.2182 46.1951 13.8214 40.1625C16.4245 34.1299 19.9573 28.8823 24.4198 24.4198C28.8823 19.9573 34.1299 16.4245 40.1625 13.8214C46.1951 11.2182 52.641 9.91667 59.5 9.91667C66.359 9.91667 72.8049 11.2182 78.8375 13.8214C84.8701 16.4245 90.1177 19.9573 94.5802 24.4198C99.0427 28.8823 102.576 34.1299 105.179 40.1625C107.782 46.1951 109.083 52.641 109.083 59.5C109.083 66.359 107.782 72.8049 105.179 78.8375C102.576 84.8701 99.0427 90.1177 94.5802 94.5802C90.1177 99.0427 84.8701 102.576 78.8375 105.179C72.8049 107.782 66.359 109.083 59.5 109.083Z" fill="#1F1F1F"/>
</svg>
